<?xml version="1.0" encoding="utf-8"?>
<!-- Generator: Adobe Illustrator 24.0.2, SVG Export Plug-In . SVG Version: 6.00 Build 0)  -->
<svg version="1.1" id="Layer_1" xmlns="http://www.w3.org/2000/svg" xmlns:xlink="http://www.w3.org/1999/xlink" x="0px" y="0px"
	 viewBox="0 0 450.1 386.2" style="enable-background:new 0 0 450.1 386.2;" xml:space="preserve">
<style type="text/css">
	.st0{fill:#FFFFFF;stroke:#000000;stroke-width:2;stroke-miterlimit:10;}
</style>
<path class="st0" d="M225,385.2c-64.3,0-128.7,0-193,0c-19.6,0-31-11.4-31-31C1,246.9,1,139.7,1,32.5C1,12.2,12.2,1,32.5,1
	c128.5,0,257,0,385.5,0c19.6,0,31,11.4,31,31c0,107.4,0,214.7,0,322.1c0,19.6-11.4,31-31,31C353.7,385.2,289.4,385.2,225,385.2z
	 M33,305.2c2.3-2.8,3.8-4.5,5.2-6.2c39.6-47.7,79.1-95.5,118.7-143.2c11.9-14.4,25.5-14.8,38.1-1.2c17.9,19.3,35.7,38.7,53.8,57.8
	c8,8.5,16.1,8.6,25.2,1.3c6-4.8,11.7-9.9,17.6-14.8c10.8-9,18.5-8.5,28.1,1.8c31.4,33.9,62.8,67.7,94.2,101.5
	c0.7,0.8,1.6,1.5,3.1,2.9c0-2.1,0-3.2,0-4.3c-0.1-84.4-0.1-168.7-0.2-253.1c0-10-5-14.7-15.3-14.7c-117.7,0-235.3,0-353,0
	C37.9,33,33,37.9,33,48.6c0,83.5,0,167,0,250.6C33,300.7,33,302.3,33,305.2z"/>
<path class="st0" d="M385.1,113.1c0,26.5-21.6,48-48.1,47.9c-26.5,0-48-21.6-47.9-48.1c0-26.5,21.6-48,48.1-47.9
	C363.6,65.1,385.1,86.6,385.1,113.1z"/>
</svg>
